# xmcd
#
# Track frame offsets: 
#        150
#        35755
#        80180
#        102212
#        134187
#        174177
#        194917
#        223472
#
# Disc length: 3530 seconds
#
# Revision: 4
# Processed by: cddbd v1.5.2PL0 Copyright (c) Steve Scherf et al.
# Submitted via: ExactAudioCopyFreeDBPlugin 1.0
#
DISCID=840dc808
DTITLE=DŻEM - List do R. na 12 głosów vol. 3
DYEAR=1995
DGENRE=Blues
TTITLE0=Cała w trawie
TTITLE1=Obłuda
TTITLE2=Człowieku co się z tobą dzieje
TTITLE3=Sen o Victorii
TTITLE4=List do M
TTITLE5=Jak malowany ptak
TTITLE6=Zapal świeczkę
TTITLE7=Whisky
EXTD=YEAR: 1995
EXTT0=
EXTT1=
EXTT2=
EXTT3=
EXTT4=
EXTT5=
EXTT6=
EXTT7=
PLAYORDER=
